<?xml version="1.0" encoding="UTF-8"?>
<!-- Generator: visioncortex VTracer 0.6.3 -->
<svg version="1.1" xmlns="http://www.w3.org/2000/svg" width="1280" height="173">
<path d="M0 0 C422.4 0 844.8 0 1280 0 C1280 57.09 1280 114.18 1280 173 C857.6 173 435.2 173 0 173 C0 115.91 0 58.82 0 0 Z " fill="#F9FCFE" transform="translate(0,0)"/>
<path d="M0 0 C4.27 1.76 6 3.89 8 8 C8.3 10.65 8.45 13.07 8.45 15.71 C8.46 16.47 8.47 17.23 8.48 18.01 C8.52 20.52 8.53 23.02 8.55 25.52 C8.57 27.25 8.59 28.99 8.61 30.73 C8.65 34.37 8.68 38.01 8.71 41.65 C8.74 46.32 8.79 50.99 8.85 55.67 C8.89 59.25 8.93 62.84 8.96 66.43 C8.98 68.15 8.99 69.88 9.01 71.6 C9.04 74 9.05 76.4 9.07 78.81 C9.08 79.88 9.08 79.88 9.09 80.98 C9.1 82.65 9.06 84.33 9 86 C6.71 88.29 1.2 87.19 -1.88 87.19 C-2.8 87.2 -3.72 87.21 -4.68 87.22 C-6.01 87.23 -6.01 87.23 -7.37 87.23 C-8.18 87.23 -9 87.24 -9.84 87.24 C-12 87 -12 87 -15 85 C-15.25 82.86 -15.25 82.86 -15.07 80.25 C-14.99 78.84 -14.99 78.84 -14.91 77.41 C-14.8 75.94 -14.8 75.94 -14.69 74.44 C-14.63 73.45 -14.57 72.47 -14.5 71.46 C-14.39 69.64 -14.27 67.82 -14.14 66.01 C-14.03 64.51 -14.03 64.51 -14 63 C-14.66 63 -15.32 63 -16 63 C-16.14 63.56 -16.27 64.11 -16.41 64.69 C-18.18 70.97 -20.85 75.84 -26 80 C-29.73 80.9 -31.21 80.38 -34.62 78.75 C-38.32 74.47 -39.49 69.37 -41 64 C-41.34 65.87 -41.67 67.75 -42 69.62 C-42.19 70.67 -42.37 71.71 -42.56 72.79 C-43.16 77.17 -43.41 80.78 -42 85 C-47.1 86.67 -51.38 87.25 -56.81 87.19 C-58.12 87.18 -59.42 87.17 -60.77 87.17 C-64 87 -64 87 -66 86 C-66.03 84.27 -66.05 82.54 -66.06 80.81 C-66.07 79.85 -66.09 78.89 -66.1 77.89 C-66 75 -66 75 -65.49 72.69 C-64.95 69.72 -64.94 67.03 -65 64.01 C-65.06 55.21 -64.64 46.45 -64.2 37.66 C-64.06 34.87 -63.93 32.09 -63.8 29.3 C-63.55 24.2 -63.29 19.1 -63 14 C-62.93 12.7 -62.86 11.4 -62.78 10.06 C-62.71 8.97 -62.63 7.88 -62.56 6.76 C-62.5 5.84 -62.44 4.93 -62.38 3.99 C-62.25 3.33 -62.13 2.68 -62 2 C-58.89 0.44 -55.6 0.73 -52.19 0.69 C-51.48 0.66 -50.76 0.63 -50.03 0.6 C-46.49 0.56 -44.25 0.86 -41.18 2.64 C-35.87 8.39 -34.48 15.84 -32.44 23.19 C-31.84 25.35 -31.23 27.51 -30.62 29.67 C-30.36 30.62 -30.09 31.57 -29.82 32.55 C-29.05 35.21 -29.05 35.21 -27 38 C-26.59 37.01 -26.17 36.01 -25.75 34.99 C-24.21 31.31 -22.67 27.63 -21.13 23.96 C-20.46 22.36 -19.8 20.77 -19.13 19.17 C-18.18 16.89 -17.22 14.6 -16.26 12.32 C-15.96 11.6 -15.67 10.88 -15.36 10.14 C-13.23 5.11 -13.23 5.11 -11 4 C-11 3.01 -11 2.02 -11 1 C-7.55 -0.73 -3.78 -0.36 0 0 Z " fill="#020304" transform="translate(530,39)"/>
<path d="M0 0 C7.65 6.54 11.11 14.93 12.05 24.75 C13.16 43.55 9.14 58.36 -2.95 72.82 C-9.46 79.66 -16.39 83.33 -25.91 83.94 C-29.21 84.02 -32.51 84.03 -35.82 84 C-36.96 84.01 -38.1 84.02 -39.28 84.03 C-40.36 84.02 -41.45 84.02 -42.57 84.02 C-43.55 84.02 -44.54 84.02 -45.55 84.01 C-47.95 83.75 -47.95 83.75 -49.95 81.75 C-50.02 79.33 -49.97 77.03 -49.82 74.61 C-49.79 73.88 -49.75 73.14 -49.71 72.39 C-49.59 69.95 -49.45 67.51 -49.3 65.07 C-49.21 63.38 -49.12 61.69 -49.03 60 C-48.84 56.45 -48.65 52.9 -48.45 49.35 C-48.19 44.8 -47.94 40.26 -47.7 35.71 C-47.51 32.21 -47.32 28.72 -47.13 25.22 C-47.04 23.54 -46.95 21.87 -46.86 20.19 C-46.73 17.84 -46.6 15.5 -46.46 13.15 C-46.42 12.46 -46.39 11.77 -46.35 11.05 C-46.16 7.85 -45.89 4.83 -44.95 1.75 C-42.72 1.11 -40.49 0.46 -38.26 -0.18 C-36.4 -0.72 -36.4 -0.72 -34.5 -1.27 C-23.85 -4.19 -9.85 -5.97 0 0 Z " fill="#020304" transform="translate(315.94921875,42.24609375)"/>
<path d="M0 0 C1.12 -0.03 2.24 -0.05 3.4 -0.08 C7.65 0.35 10.02 1.48 12.91 4.66 C16.55 9.35 18.5 14.5 20.44 20.06 C20.9 21.35 20.9 21.35 21.38 22.66 C23.62 28.93 23.62 28.93 23.62 31.25 C24.29 31.25 24.94 31.25 25.62 31.25 C25.67 30.42 25.71 29.59 25.76 28.73 C25.93 25.63 26.12 22.54 26.31 19.45 C26.44 17.46 26.54 15.46 26.65 13.47 C26.73 12.21 26.81 10.96 26.89 9.67 C27 7.93 27 7.93 27.1 6.16 C27.62 3.25 27.62 3.25 28.95 1.37 C31.77 -0.52 34.92 -0.14 38.19 -0.06 C38.87 -0.07 39.56 -0.07 40.26 -0.07 C45.36 -0.02 45.36 -0.02 47.62 2.25 C48.52 12.26 47.34 22.67 46.77 32.69 C45.76 50.57 45.36 68.34 45.62 86.25 C34.56 87.41 34.56 87.41 30.19 87.5 C29.38 87.53 28.58 87.55 27.75 87.58 C25 87.15 24.4 86.39 22.62 84.25 C21.45 81.74 21.45 81.74 20.32 78.76 C19.9 77.66 19.48 76.56 19.05 75.43 C18.62 74.28 18.19 73.12 17.75 71.94 C17.12 70.27 17.12 70.27 16.47 68.58 C13.42 60.5 10.53 52.38 7.62 44.25 C6.96 58.44 6.31 72.63 5.62 87.25 C-14.38 87.25 -14.38 87.25 -16.38 86.25 C-16.6 74.82 -16 63.5 -15.2 52.1 C-15 49.22 -14.81 46.33 -14.62 43.45 C-14.23 37.71 -13.81 31.98 -13.38 26.25 C-13.3 25.23 -13.22 24.2 -13.14 23.15 C-12.9 20.1 -12.65 17.05 -12.4 14 C-12.33 13.07 -12.25 12.13 -12.18 11.17 C-12.1 10.3 -12.03 9.44 -11.95 8.55 C-11.89 7.79 -11.82 7.03 -11.76 6.25 C-11.38 4.25 -11.38 4.25 -9.38 1.25 C-6.07 0.15 -3.48 0.05 0 0 Z " fill="#020304" transform="translate(1094.375,38.75)"/>
<path d="M0 0 C1.12 -0.03 2.24 -0.05 3.4 -0.08 C7.65 0.35 10.03 1.48 12.91 4.68 C16.4 9.23 18.45 14.16 20.44 19.5 C20.9 20.7 20.9 20.7 21.38 21.93 C23.62 27.83 23.62 27.83 23.62 31.25 C24.28 31.25 24.95 31.25 25.62 31.25 C25.67 30.42 25.71 29.59 25.76 28.73 C25.93 25.63 26.12 22.54 26.31 19.45 C26.44 17.46 26.54 15.46 26.65 13.47 C26.73 12.21 26.81 10.96 26.89 9.67 C27 7.93 27 7.93 27.1 6.16 C27.62 3.25 27.62 3.25 28.95 1.37 C31.77 -0.52 34.92 -0.14 38.19 -0.06 C38.87 -0.07 39.56 -0.07 40.26 -0.07 C45.36 -0.02 45.36 -0.02 47.62 2.25 C47.86 5.07 47.86 5.07 47.81 8.71 C47.81 9.38 47.8 10.04 47.79 10.72 C47.67 18.27 47.22 25.81 46.77 33.34 C45.73 51 45.36 68.56 45.62 86.25 C34.56 87.41 34.56 87.41 30.19 87.5 C29.38 87.53 28.58 87.55 27.75 87.58 C24.98 87.15 24.4 86.42 22.62 84.25 C21.38 81.49 21.38 81.49 20.18 78.19 C19.74 77 19.31 75.81 18.86 74.58 C18.4 73.33 17.95 72.07 17.5 70.81 C17.04 69.56 16.58 68.31 16.12 67.05 C12.79 57.92 12.79 57.92 11.62 53.25 C10.3 50.28 8.99 47.31 7.62 44.25 C6.97 58.44 6.3 72.63 5.62 87.25 C-14.38 87.25 -14.38 87.25 -16.38 86.25 C-16.64 75.26 -15.93 64.36 -15.2 53.4 C-15 50.35 -14.81 47.3 -14.62 44.26 C-13.97 34.14 -13.25 24.03 -12.4 13.93 C-12.33 13 -12.25 12.07 -12.18 11.11 C-12.07 9.82 -12.07 9.82 -11.95 8.51 C-11.89 7.76 -11.82 7 -11.76 6.23 C-11.38 4.25 -11.38 4.25 -9.38 1.25 C-6.07 0.15 -3.48 0.05 0 0 Z " fill="#020304" transform="translate(824.375,38.75)"/>
<path d="M0 0 C7.06 7.42 8.28 14.08 8.14 24.01 C7.76 32.01 5.12 37.79 0 44 C-2.2 45.76 -2.2 45.76 -4 47 C-3.49 53.92 0.27 59.32 3.67 65.19 C4.35 66.41 4.35 66.41 5.04 67.66 C5.47 68.4 5.89 69.14 6.32 69.9 C7 72 7 72 6.29 74.14 C4.37 76.91 1.97 78.44 -0.81 80.31 C-1.85 81.03 -2.89 81.75 -3.96 82.49 C-7 84 -7 84 -9.61 84.23 C-13.48 82.24 -14.68 78.77 -16.5 74.94 C-17.98 71.95 -19.48 68.97 -21 66 C-21.38 65.23 -21.76 64.45 -22.15 63.66 C-22.54 62.93 -22.94 62.19 -23.34 61.44 C-23.69 60.78 -24.03 60.12 -24.38 59.44 C-26.51 57.23 -26.51 57.23 -33 58 C-33.33 66.25 -33.66 74.5 -34 83 C-37.11 83.02 -40.23 83.04 -43.44 83.06 C-44.91 83.08 -44.91 83.08 -46.42 83.09 C-47.18 83.09 -47.95 83.1 -48.75 83.1 C-49.54 83.1 -50.33 83.11 -51.14 83.11 C-53 83 -53 83 -54 82 C-54.47 72.97 -53.79 63.89 -53.2 54.89 C-53.11 53.59 -53.03 52.3 -52.94 50.96 C-52.76 48.25 -52.58 45.54 -52.4 42.82 C-52.17 39.37 -51.95 35.91 -51.73 32.45 C-51.52 29.12 -51.29 25.78 -51.07 22.45 C-50.99 21.22 -50.92 19.99 -50.84 18.72 C-50.41 12.58 -49.75 6.91 -48 1 C-34.36 -2.47 -12.81 -7.42 0 0 Z " fill="#020304" transform="translate(1063,42)"/>
<path d="M0 0 C6.04 5.71 8.17 14.39 9.79 22.29 C10 23.23 10.2 24.17 10.41 25.14 C12.49 34.93 14.31 44.77 16.05 54.63 C16.57 57.62 17.11 60.6 17.65 63.59 C17.99 65.52 18.33 67.44 18.68 69.37 C18.91 70.69 18.91 70.69 19.16 72.04 C19.99 76.81 20.42 81.28 20.25 86.12 C16.63 86.15 13 86.17 9.38 86.19 C7.83 86.2 7.83 86.2 6.25 86.21 C5.26 86.22 4.27 86.22 3.26 86.22 C2.35 86.23 1.44 86.23 0.5 86.24 C-1.75 86.12 -1.75 86.12 -3.75 85.12 C-4.23 82.58 -4.59 80.12 -4.88 77.56 C-4.96 76.85 -5.05 76.14 -5.14 75.41 C-5.35 73.65 -5.55 71.89 -5.75 70.12 C-7.81 70.44 -9.88 70.75 -11.94 71.06 C-13.66 71.32 -13.66 71.32 -15.42 71.59 C-18.21 72.04 -20.98 72.55 -23.75 73.12 C-23.87 73.9 -23.99 74.67 -24.12 75.46 C-24.28 76.46 -24.45 77.47 -24.62 78.5 C-24.79 79.5 -24.95 80.5 -25.12 81.52 C-25.75 84.12 -25.75 84.12 -27.75 86.12 C-34.7 86.84 -41.84 85.96 -48.75 85.12 C-49.97 80.84 -49.45 78.08 -48.16 73.85 C-47.79 72.62 -47.42 71.4 -47.05 70.14 C-46.64 68.82 -46.22 67.5 -45.81 66.19 C-45.39 64.83 -44.97 63.46 -44.56 62.1 C-41 50.63 -37.14 39.3 -32.75 28.12 C-32.31 26.99 -31.87 25.86 -31.41 24.7 C-29.99 21.08 -28.53 17.48 -27.06 13.88 C-26.61 12.74 -26.16 11.6 -25.69 10.42 C-25.25 9.37 -24.82 8.32 -24.36 7.23 C-23.98 6.3 -23.6 5.36 -23.2 4.39 C-21 0.96 -18.26 0.54 -14.5 -0.5 C-9.53 -1.18 -4.82 -1.53 0 0 Z " fill="#040506" transform="translate(174.75,39.875)"/>
<path d="M0 0 C5.6 5.48 7.41 13.89 8.94 21.31 C9.13 22.24 9.33 23.17 9.53 24.12 C11.89 35.6 13.93 47.15 16 58.69 C16.27 60.21 16.27 60.21 16.55 61.76 C17.08 64.69 17.6 67.61 18.11 70.54 C18.27 71.42 18.43 72.31 18.6 73.22 C19.29 77.21 19.9 80.99 19.69 85.06 C16.06 85.09 12.44 85.11 8.81 85.12 C7.26 85.14 7.26 85.14 5.68 85.15 C4.7 85.15 3.71 85.16 2.7 85.16 C1.78 85.17 0.87 85.17 -0.07 85.18 C-2.31 85.06 -2.31 85.06 -4.31 84.06 C-4.78 81.73 -5.14 79.37 -5.44 77 C-5.61 75.71 -5.77 74.42 -5.95 73.09 C-6.07 72.09 -6.19 71.09 -6.31 70.06 C-11.93 68.19 -17.93 69.9 -23.31 72.06 C-25.42 74.94 -25.76 77.61 -26.31 81.06 C-27.36 83.35 -27.36 83.35 -28.31 85.06 C-46.68 85.38 -46.68 85.38 -51.31 83.06 C-45.65 58.05 -36.76 34.02 -26.94 10.38 C-26.6 9.57 -26.27 8.76 -25.93 7.92 C-23.55 2.3 -23.55 2.3 -21.31 0.06 C-14.39 -2.31 -6.49 -3.79 0 0 Z " fill="#040506" transform="translate(1198.3125,40.9375)"/>
<path d="M0 0 C2.59 3.88 2.26 7.13 2.19 11.62 C2.19 12.41 2.19 13.2 2.19 14.02 C2.14 19.86 2.14 19.86 1 21 C-1.57 21.36 -4.13 21.67 -6.72 21.94 C-7.49 22.02 -8.26 22.11 -9.06 22.2 C-12.38 22.56 -15.7 22.91 -19.03 23.27 C-21.44 23.53 -23.86 23.8 -26.28 24.06 C-27.42 24.18 -27.42 24.18 -28.58 24.3 C-32.09 24.41 -32.09 24.41 -35 26 C-35.07 27.52 -35.08 29.04 -35.06 30.56 C-35.05 31.39 -35.04 32.22 -35.04 33.07 C-35.02 33.7 -35.01 34.34 -35 35 C-34.45 34.84 -33.89 34.68 -33.33 34.52 C-30.78 33.95 -28.4 33.79 -25.8 33.68 C-24.82 33.64 -23.84 33.6 -22.83 33.56 C-21.81 33.52 -20.8 33.48 -19.75 33.44 C-18.72 33.39 -17.69 33.35 -16.62 33.31 C-14.08 33.2 -11.54 33.1 -9 33 C-9 36.96 -9 40.92 -9 45 C-8.67 43.35 -8.34 41.7 -8 40 C-7.67 40 -7.34 40 -7 40 C-7 43.63 -7 47.26 -7 51 C-8.14 51.19 -8.14 51.19 -9.31 51.38 C-12.24 51.87 -15.15 52.4 -18.06 52.94 C-24.36 54.09 -30.67 55.05 -37 56 C-37 58.64 -37 61.28 -37 64 C-35.98 64.02 -34.96 64.04 -33.91 64.06 C-30.13 64.14 -26.36 64.22 -22.58 64.32 C-20.95 64.36 -19.31 64.39 -17.68 64.42 C-15.33 64.47 -12.98 64.53 -10.63 64.59 C-9.53 64.6 -9.53 64.6 -8.41 64.62 C-3.23 64.77 -3.23 64.77 -1 67 C-0.77 68.88 -0.77 68.88 -0.8 71.13 C-0.81 71.94 -0.82 72.74 -0.82 73.57 C-0.84 74.42 -0.86 75.26 -0.88 76.12 C-0.88 76.97 -0.89 77.82 -0.9 78.7 C-0.93 80.8 -0.96 82.9 -1 85 C-5.49 86.07 -9.97 86.31 -14.56 86.54 C-15.8 86.6 -15.8 86.6 -17.07 86.67 C-18.82 86.76 -20.57 86.84 -22.33 86.93 C-24.96 87.06 -27.6 87.2 -30.24 87.34 C-52.85 88.5 -52.85 88.5 -58 88 C-60 86 -60 86 -60.18 82.92 C-60.16 81.58 -60.13 80.24 -60.08 78.9 C-60.07 78.17 -60.05 77.43 -60.03 76.68 C-59.97 74.24 -59.89 71.81 -59.81 69.38 C-59.79 68.54 -59.76 67.71 -59.74 66.85 C-59.33 53.19 -58.56 39.57 -57.56 25.94 C-57.5 25.07 -57.44 24.2 -57.38 23.31 C-57.2 20.84 -57.01 18.37 -56.82 15.9 C-56.76 15.17 -56.71 14.45 -56.66 13.69 C-56.33 9.79 -55.68 6.55 -54 3 C-47.88 2.15 -41.83 1.72 -35.66 1.46 C-34.7 1.42 -33.74 1.38 -32.75 1.33 C-29.71 1.2 -26.67 1.07 -23.62 0.94 C-21.56 0.85 -19.49 0.75 -17.43 0.66 C-13.66 0.5 -9.9 0.33 -6.14 0.17 C-5.39 0.14 -4.63 0.1 -3.86 0.07 C-2.57 0.02 -1.29 0 0 0 Z " fill="#030405" transform="translate(1003,38)"/>
<path d="M0 0 C0.8 -0 1.61 -0 2.44 -0 C3.28 -0 4.13 0 5 0.01 C6.27 0 6.27 0 7.56 -0 C8.37 -0 9.17 -0 10 0 C10.74 0 11.49 0 12.25 0 C14 0.13 14 0.13 15 1.13 C15.79 13.68 14.24 26.37 13.21 38.86 C12.98 41.56 12.77 44.27 12.56 46.97 C12.45 48.2 12.45 48.2 12.34 49.45 C11.97 54.21 12.14 58.43 13 63.13 C16.59 64.33 19.23 64.46 23 64.13 C25.91 61.91 26.84 60.61 28 57.13 C28.21 55.1 28.37 53.06 28.5 51.02 C28.58 49.78 28.66 48.54 28.75 47.27 C28.83 45.93 28.92 44.59 29 43.26 C29.09 41.9 29.18 40.54 29.27 39.18 C29.67 33.02 30.03 26.86 30.28 20.69 C30.32 19.74 30.36 18.79 30.4 17.81 C30.46 16.08 30.52 14.34 30.57 12.61 C30.61 11.44 30.61 11.44 30.66 10.26 C30.67 9.6 30.69 8.94 30.71 8.27 C31 6.13 31 6.13 33 0.13 C38.94 0.13 44.88 0.13 51 0.13 C52.19 2.51 52.13 3.95 52.13 6.59 C52.13 7.53 52.14 8.46 52.14 9.42 C52.13 10.95 52.13 10.95 52.12 12.51 C52.12 13.56 52.12 14.62 52.11 15.71 C51.77 66.26 51.77 66.26 40.41 78.91 C33.55 85.53 25.45 86.38 16.31 86.45 C15.24 86.45 15.24 86.45 14.15 86.46 C6.85 86.36 0.96 84.92 -4.49 79.91 C-12.61 70.36 -10.58 53.95 -9.72 42.34 C-9.37 38.17 -8.97 33.99 -8.56 29.82 C-8.5 29.13 -8.43 28.44 -8.36 27.73 C-7.16 15.66 -7.16 15.66 -6 10.13 C-5.73 7.77 -5.5 5.4 -5.28 3.02 C-4.76 -0.46 -3.15 0 0 0 Z " fill="#020304" transform="translate(210,39.8671875)"/>
<path d="M0 0 C2.96 -0.05 5.92 -0.09 8.88 -0.12 C9.72 -0.14 10.56 -0.16 11.43 -0.18 C12.23 -0.18 13.04 -0.19 13.87 -0.2 C14.61 -0.21 15.35 -0.22 16.12 -0.23 C18 0 18 0 20 2 C19.96 5.07 19.8 8.02 19.54 11.07 C19.47 11.99 19.4 12.91 19.33 13.85 C19.1 16.8 18.87 19.74 18.62 22.69 C17.34 38.15 17.34 38.15 16.71 53.64 C16.69 54.79 16.67 55.93 16.65 57.11 C17.04 60.36 17.65 61.74 20 64 C23.61 64.46 25.96 64.6 29.15 62.75 C35.68 56.57 33.69 39.52 34.06 30.94 C35.33 3.33 35.33 3.33 37 0 C39.96 -0.05 42.92 -0.09 45.88 -0.12 C46.72 -0.14 47.56 -0.16 48.43 -0.18 C49.23 -0.18 50.04 -0.19 50.87 -0.2 C51.61 -0.21 52.35 -0.22 53.12 -0.23 C55 0 55 0 57 2 C57.12 4.84 57.11 7.58 57.01 10.42 C56.99 11.27 56.97 12.12 56.94 12.99 C56.89 14.8 56.84 16.61 56.78 18.42 C56.69 21.13 56.61 23.85 56.54 26.56 C55.4 67.12 55.4 67.12 46 77 C45.46 77.57 44.92 78.13 44.37 78.71 C37.43 85.3 30.19 86.26 20.94 86.38 C20.18 86.39 19.43 86.4 18.65 86.42 C12.1 86.36 7.03 84.65 1.25 81.5 C-5.57 73.93 -5.64 63.66 -5.5 54 C-5.49 52.68 -5.48 51.36 -5.47 50.01 C-4.93 9.86 -4.93 9.86 0 0 Z " fill="#010203" transform="translate(549,40)"/>
<path d="M0 0 C0.8 -0 1.61 -0 2.44 -0 C3.28 -0 4.13 0 5 0.01 C6.27 0 6.27 0 7.56 -0 C8.37 -0 9.17 -0 10 0 C10.74 0 11.49 0 12.25 0 C14 0.13 14 0.13 15 1.13 C15.45 9.62 14.77 18.06 14 26.51 C12.96 38.74 12.77 50.87 13 63.13 C16.59 64.33 19.23 64.46 23 64.13 C25.91 61.91 26.84 60.61 28 57.13 C28.21 55.26 28.37 53.37 28.5 51.49 C28.58 50.35 28.66 49.2 28.75 48.03 C28.87 46.19 28.87 46.19 29 44.32 C29.09 43.07 29.18 41.82 29.27 40.53 C29.87 31.74 30.34 22.96 30.57 14.15 C30.61 12.91 30.61 12.91 30.66 11.64 C30.67 10.94 30.69 10.23 30.71 9.5 C31.1 6.31 32.12 3.22 33 0.13 C38.94 0.13 44.88 0.13 51 0.13 C52.73 3.59 52.14 7.58 52.12 11.38 C52.12 12.34 52.12 13.3 52.11 14.28 C52.05 22.73 51.9 31.18 51.69 39.63 C51.67 40.86 51.64 42.09 51.62 43.35 C51.19 57.7 49.38 70.23 38.75 80.51 C30.1 87.24 18.48 87.26 8 86.13 C2.54 84.93 -2.7 82.88 -6.04 78.13 C-14.83 59.86 -10.06 30.52 -6 11.13 C-5.72 8.5 -5.5 5.88 -5.28 3.24 C-4.79 -0.43 -3.34 0.01 0 0 Z " fill="#020304" transform="translate(686,39.8671875)"/>
<path d="M0 0 C3.63 2.7 5.29 5.84 7 10 C7.35 13.14 7.29 16.22 7.19 19.38 C7.17 20.62 7.17 20.62 7.15 21.89 C7.11 23.93 7.06 25.97 7 28 C4.23 28.08 1.46 28.14 -1.31 28.19 C-2.1 28.21 -2.88 28.24 -3.69 28.26 C-4.45 28.27 -5.21 28.28 -5.99 28.29 C-6.68 28.31 -7.38 28.32 -8.1 28.34 C-10.6 27.89 -11.46 26.98 -13 25 C-13.51 22.3 -13.51 22.3 -13.69 19.31 C-13.75 18.32 -13.82 17.32 -13.89 16.3 C-13.94 15.16 -13.94 15.16 -14 14 C-15.65 14.33 -17.3 14.66 -19 15 C-19.28 16.56 -19.52 18.12 -19.75 19.69 C-19.89 20.56 -20.03 21.43 -20.17 22.32 C-19.93 26.04 -18.6 27.38 -16 30 C-14.13 31.32 -12.21 32.56 -10.25 33.75 C-2.53 38.76 4.47 44.85 7 54 C8.08 62.99 6.02 69.32 1.19 76.81 C-5.56 83.56 -13.02 84.25 -22.2 84.25 C-31.32 84.1 -38.87 80.87 -47 77 C-47.44 70.83 -46.79 66.08 -43 61 C-40 60 -40 60 -37.14 61.21 C-36.04 61.78 -34.95 62.35 -33.81 62.94 C-28.44 65.53 -24.9 66.79 -19 66 C-17.64 64.85 -17.64 64.85 -17.69 61.75 C-18.06 57.26 -18.95 56.23 -22 53 C-24.27 51.4 -26.5 49.93 -28.88 48.5 C-42.45 40.24 -42.45 40.24 -44.59 31.61 C-45.9 23.23 -43.22 15.01 -38.68 7.95 C-29.49 -3.77 -13.13 -5.35 0 0 Z " fill="#010203" transform="translate(47,42)"/>
<path d="M0 0 C1.65 3.31 1.1 6.99 1.06 10.62 C1.06 11.43 1.05 12.23 1.05 13.05 C1.04 15.04 1.02 17.02 1 19 C-0.48 19.17 -1.96 19.34 -3.44 19.5 C-4.26 19.59 -5.08 19.69 -5.93 19.78 C-8.54 19.97 -11.08 20.02 -13.69 20.01 C-14.9 20.01 -14.9 20.01 -16.14 20.01 C-17.06 20 -17.06 20 -18 20 C-18.06 21.21 -18.11 22.43 -18.17 23.68 C-18.38 28.23 -18.59 32.79 -18.8 37.34 C-18.89 39.3 -18.98 41.26 -19.07 43.23 C-19.93 62.13 -19.93 62.13 -20.81 70.83 C-21.1 74.13 -21.1 77.38 -21.06 80.69 C-21.05 81.89 -21.04 83.09 -21.04 84.32 C-21.02 85.21 -21.01 86.09 -21 87 C-24.29 87.03 -27.58 87.05 -30.88 87.06 C-31.81 87.07 -32.75 87.08 -33.71 87.09 C-35.06 87.09 -35.06 87.09 -36.43 87.1 C-37.67 87.11 -37.67 87.11 -38.94 87.11 C-41 87 -41 87 -43 86 C-43.03 83.96 -43.05 81.92 -43.06 79.88 C-43.07 78.74 -43.09 77.6 -43.1 76.43 C-43 73 -43 73 -42.5 70.2 C-41.98 66.85 -41.9 63.73 -41.94 60.34 C-41.95 59.07 -41.95 57.8 -41.96 56.49 C-41.99 53.86 -42.01 51.23 -42.04 48.6 C-42.09 40 -41.74 31.56 -41 23 C-42.9 23.27 -42.9 23.27 -44.83 23.54 C-46.49 23.76 -48.15 23.97 -49.81 24.19 C-50.65 24.31 -51.48 24.43 -52.34 24.55 C-53.54 24.7 -53.54 24.7 -54.77 24.86 C-55.51 24.95 -56.25 25.05 -57.01 25.16 C-59 25 -59 25 -60.75 23.77 C-62.29 21.59 -62.32 20.52 -62.18 17.88 C-62.14 17.09 -62.1 16.3 -62.05 15.48 C-62 14.66 -61.94 13.84 -61.88 13 C-61.84 12.18 -61.8 11.36 -61.77 10.52 C-61.39 4.51 -61.39 4.51 -59.67 2.27 C-56.86 0.13 -53.59 0.41 -50.19 0.31 C-49.36 0.28 -48.53 0.25 -47.68 0.21 C-31.8 -0.32 -15.88 -0.08 0 0 Z " fill="#020304" transform="translate(671,39)"/>
<path d="M0 0 C1.65 3.31 1.1 6.99 1.06 10.62 C1.06 11.43 1.05 12.23 1.05 13.05 C1.04 15.04 1.02 17.02 1 19 C-5.39 19.82 -11.56 20.06 -18 20 C-18.04 21.43 -18.04 21.43 -18.08 22.89 C-18.17 26.46 -18.27 30.03 -18.37 33.6 C-18.42 35.14 -18.46 36.68 -18.5 38.22 C-18.89 52.99 -18.89 52.99 -19.76 59.78 C-20.31 64.85 -20.38 69.97 -20.56 75.06 C-20.63 76.79 -20.63 76.79 -20.69 78.55 C-20.8 81.37 -20.9 84.18 -21 87 C-24.29 87.06 -27.58 87.09 -30.88 87.12 C-31.81 87.14 -32.75 87.16 -33.71 87.18 C-34.61 87.18 -35.51 87.19 -36.43 87.2 C-37.26 87.21 -38.08 87.22 -38.94 87.23 C-41 87 -41 87 -43 85 C-43.11 82.24 -43.09 79.58 -42.98 76.83 C-42.95 76 -42.93 75.17 -42.9 74.32 C-42.85 72.55 -42.79 70.78 -42.72 69.01 C-42.56 64.44 -42.43 59.87 -42.29 55.3 C-42.27 54.4 -42.24 53.51 -42.21 52.58 C-41.91 42.72 -41.9 32.87 -42 23 C-43.2 23.16 -44.41 23.31 -45.65 23.47 C-47.22 23.67 -48.8 23.87 -50.38 24.06 C-51.17 24.17 -51.96 24.27 -52.78 24.38 C-58.77 25.11 -58.77 25.11 -61 24 C-61.09 20.73 -61.14 17.46 -61.19 14.19 C-61.21 13.26 -61.24 12.33 -61.26 11.37 C-61.27 10.48 -61.28 9.59 -61.29 8.67 C-61.31 7.85 -61.32 7.02 -61.34 6.18 C-61 4 -61 4 -59.71 2.24 C-56.74 0.08 -53.17 0.41 -49.62 0.31 C-48.75 0.28 -47.87 0.25 -46.97 0.21 C-31.32 -0.29 -15.65 -0.08 0 0 Z " fill="#020304" transform="translate(938,39)"/>
<path d="M0 0 C1.59 3.17 1.14 6.58 1.12 10.06 C1.13 11.18 1.13 11.18 1.14 12.32 C1.13 17.87 1.13 17.87 0 19 C-1.32 19.24 -2.66 19.42 -4 19.56 C-4.72 19.65 -5.44 19.73 -6.19 19.82 C-8.7 19.98 -11.16 20.02 -13.68 20.01 C-14.49 20.01 -15.3 20.01 -16.13 20.01 C-16.75 20 -17.36 20 -18 20 C-18.06 21.19 -18.11 22.39 -18.17 23.62 C-18.38 28.12 -18.59 32.62 -18.8 37.12 C-18.89 39.05 -18.98 40.99 -19.07 42.92 C-19.49 52.04 -19.92 61.15 -20.57 70.25 C-20.96 75.84 -21.12 81.39 -21 87 C-24.29 87.03 -27.58 87.05 -30.88 87.06 C-31.81 87.07 -32.75 87.08 -33.71 87.09 C-35.06 87.09 -35.06 87.09 -36.43 87.1 C-37.67 87.11 -37.67 87.11 -38.94 87.11 C-41 87 -41 87 -43 86 C-43.13 75.22 -42.85 64.51 -42.29 53.74 C-41.95 47.22 -41.69 40.71 -41.44 34.19 C-41.37 32.52 -41.37 32.52 -41.3 30.82 C-41.2 28.21 -41.1 25.61 -41 23 C-42.26 23.17 -43.53 23.34 -44.83 23.51 C-46.49 23.71 -48.15 23.92 -49.81 24.12 C-50.65 24.24 -51.48 24.35 -52.34 24.46 C-53.54 24.61 -53.54 24.61 -54.77 24.76 C-55.51 24.85 -56.25 24.95 -57.01 25.04 C-59 25 -59 25 -62 23 C-62.08 20.11 -62 17.48 -61.75 14.62 C-61.7 13.86 -61.64 13.09 -61.59 12.3 C-61.06 5.21 -61.06 5.21 -60 2 C-56.92 0.46 -53.64 0.61 -50.25 0.44 C-49.42 0.4 -48.59 0.35 -47.73 0.31 C-31.84 -0.37 -15.9 -0.08 0 0 Z " fill="#020304" transform="translate(421,39)"/>
<path d="M0 0 C0.8 0.05 1.6 0.1 2.43 0.16 C4.41 0.29 6.39 0.42 8.38 0.56 C10.01 3.84 9.52 7.46 9.5 11.06 C9.5 11.92 9.5 12.77 9.49 13.65 C9.45 19.96 9.15 26.24 8.73 32.54 C8.14 42.2 8.29 51.88 8.38 61.56 C9.63 61.59 9.63 61.59 10.91 61.62 C14.02 61.7 17.12 61.79 20.23 61.88 C22.23 61.94 24.24 61.98 26.25 62.03 C27.5 62.07 28.76 62.11 30.05 62.15 C31.8 62.2 31.8 62.2 33.58 62.24 C36.38 62.56 36.38 62.56 38.38 64.56 C38.62 66.5 38.62 66.5 38.61 68.84 C38.6 69.69 38.6 70.53 38.6 71.39 C38.58 72.72 38.58 72.72 38.56 74.06 C38.56 74.94 38.56 75.82 38.56 76.73 C38.52 83.28 38.52 83.28 37.38 85.56 C32.36 85.85 27.35 86.14 22.34 86.42 C20.64 86.51 18.94 86.61 17.24 86.71 C-11.96 88.4 -11.96 88.4 -15.62 86.56 C-15.71 77.31 -15.47 68.1 -15.04 58.86 C-14.98 57.49 -14.91 56.12 -14.85 54.75 C-14.72 51.91 -14.59 49.06 -14.45 46.21 C-14.28 42.59 -14.12 38.97 -13.96 35.35 C-13.84 32.53 -13.71 29.71 -13.57 26.89 C-13.48 24.92 -13.39 22.94 -13.31 20.97 C-12.59 6.38 -12.59 6.38 -10.62 0.56 C-7.3 -1.1 -3.63 -0.26 0 0 Z " fill="#010203" transform="translate(1238.625,38.4375)"/>
<path d="M0 0 C1.14 0 1.14 0 2.29 0.01 C3.47 0.02 3.47 0.02 4.68 0.04 C5.47 0.04 6.27 0.04 7.09 0.05 C9.06 0.06 11.02 0.08 12.99 0.1 C12.99 0.76 12.99 1.42 12.99 2.1 C13.65 2.1 14.31 2.1 14.99 2.1 C14.73 6.64 14.46 11.18 14.19 15.71 C14.1 17.26 14.01 18.8 13.92 20.35 C13.79 22.57 13.66 24.78 13.52 27 C13.47 28.04 13.47 28.04 13.41 29.11 C13.1 33.98 13.1 33.98 11.99 35.1 C11.91 36.78 11.91 38.47 11.93 40.16 C11.93 41.18 11.94 42.21 11.95 43.26 C11.98 45.44 12 47.62 12.03 49.79 C12.04 50.82 12.04 51.85 12.05 52.91 C12.06 53.85 12.07 54.8 12.09 55.78 C11.99 58.1 11.99 58.1 10.99 60.1 C11.39 62.2 11.39 62.2 11.99 64.1 C11 64.1 10.01 64.1 8.99 64.1 C9.31 64.66 9.62 65.21 9.95 65.79 C11.08 68.31 11.39 70.29 11.61 73.04 C11.69 73.87 11.76 74.7 11.84 75.56 C11.99 78.09 12.09 80.57 11.99 83.1 C11.66 83.43 11.33 83.76 10.99 84.1 C10.99 85.42 10.99 86.74 10.99 88.1 C7.53 88.13 4.07 88.14 0.61 88.16 C-0.37 88.17 -1.36 88.18 -2.37 88.19 C-3.78 88.19 -3.78 88.19 -5.22 88.2 C-6.09 88.2 -6.96 88.21 -7.86 88.21 C-10.01 88.1 -10.01 88.1 -12.01 87.1 C-12.13 74.17 -11.87 61.32 -11.21 48.41 C-11.07 45.7 -10.94 42.99 -10.81 40.28 C-10.33 30.54 -9.77 20.82 -9.01 11.1 C-8.35 11.1 -7.69 11.1 -7.01 11.1 C-7.2 9.82 -7.38 8.54 -7.57 7.22 C-8.14 3.35 -8.14 3.35 -7.01 1.1 C-4.3 0.2 -2.77 -0.02 0 0 Z " fill="#090B0C" transform="translate(792.01171875,37.90234375)"/>
<path d="M0 0 C1.2 0 1.2 0 2.43 0.01 C3.68 0.02 3.68 0.02 4.96 0.04 C6.22 0.04 6.22 0.04 7.52 0.05 C9.6 0.06 11.69 0.08 13.77 0.1 C14.95 2.45 14.84 3.66 14.72 6.27 C14.66 7.59 14.66 7.59 14.6 8.93 C14.56 9.89 14.51 10.86 14.46 11.85 C14.41 12.85 14.36 13.85 14.32 14.88 C13.83 24.84 13.15 34.78 12.43 44.72 C11.95 51.53 11.64 58.27 11.77 65.1 C11.11 65.1 10.45 65.1 9.77 65.1 C10.29 65.59 10.8 66.09 11.33 66.6 C13.08 69.64 12.69 71.42 12.09 74.8 C11.61 78.23 11.75 81.63 11.83 85.09 C11.77 87.1 11.77 87.1 10.77 88.1 C9.3 88.2 7.84 88.23 6.37 88.23 C5.48 88.23 4.59 88.23 3.67 88.23 C2.27 88.23 2.27 88.23 0.83 88.22 C-0.1 88.23 -1.03 88.23 -1.99 88.23 C-2.89 88.23 -3.78 88.23 -4.7 88.23 C-5.52 88.23 -6.34 88.23 -7.18 88.23 C-9.23 88.1 -9.23 88.1 -11.23 87.1 C-11.44 69.23 -11.4 51.44 -10.29 33.6 C-10.25 32.89 -10.21 32.19 -10.16 31.46 C-8.76 9.16 -8.76 9.16 -7.23 1.1 C-4.46 0.18 -2.85 -0.02 0 0 Z " fill="#090A0B" transform="translate(70.23046875,37.90234375)"/>
<path d="M0 0 C1.14 0 1.14 0 2.29 0.01 C3.47 0.02 3.47 0.02 4.68 0.04 C5.47 0.04 6.27 0.04 7.09 0.05 C9.06 0.06 11.02 0.08 12.99 0.1 C16.78 7.68 13.43 20.08 12.43 28.29 C12.01 31.89 11.99 35.22 12.05 38.85 C12.06 44.43 11.62 49.98 11.21 55.55 C11.01 58.74 10.95 61.9 10.99 65.1 C10.99 66.09 10.99 67.08 10.99 68.1 C11.08 69.22 11.18 70.34 11.28 71.5 C11.39 72.81 11.5 74.12 11.61 75.47 C11.73 76.78 11.85 78.09 11.96 79.43 C11.99 82.97 11.57 84.98 9.99 88.1 C6.7 88.13 3.41 88.14 0.11 88.16 C-0.82 88.17 -1.76 88.18 -2.73 88.19 C-4.07 88.19 -4.07 88.19 -5.44 88.2 C-6.27 88.2 -7.1 88.21 -7.95 88.21 C-10.01 88.1 -10.01 88.1 -12.01 87.1 C-12.33 66.06 -11.49 45.22 -10.15 24.24 C-9.96 21.23 -9.77 18.22 -9.58 15.21 C-9.39 12.17 -9.2 9.13 -9.01 6.1 C-8.35 6.1 -7.69 6.1 -7.01 6.1 C-7.01 4.45 -7.01 2.8 -7.01 1.1 C-4.3 0.2 -2.77 -0.02 0 0 Z " fill="#090A0B" transform="translate(344.01171875,37.90234375)"/>
<path d="M0 0 C3.51 4.62 4.47 9.53 4.73 15.21 C4.82 15.8 4.91 16.39 5 17 C5.66 17.33 6.32 17.66 7 18 C6.01 18 5.02 18 4 18 C3.91 18.69 3.83 19.38 3.74 20.09 C2.52 28.25 0.28 35.29 -5.94 41 C-9.11 43.07 -11.25 43.73 -15 44 C-15.99 40.53 -15.99 40.53 -17 37 C-16.5 36.5 -16.5 36.5 -16 36 C-15.82 33.68 -15.7 31.36 -15.61 29.04 C-15.54 27.61 -15.47 26.17 -15.4 24.73 C-15.29 22.46 -15.19 20.19 -15.1 17.92 C-15.02 15.73 -14.91 13.54 -14.79 11.36 C-14.74 10.04 -14.68 8.73 -14.62 7.38 C-13.92 3.55 -13.06 2.32 -10 0 C-6.44 -1.19 -3.47 -1.51 0 0 Z " fill="#F9FCFE" transform="translate(303,60)"/>
<path d="M0 0 C2.45 3.68 2.39 5.38 1.79 9.64 C0.28 14.15 -2.94 16.73 -7 19 C-10.03 19.78 -12.87 20.05 -16 20 C-17.46 15.13 -17.17 9.91 -16 5 C-12.58 0.47 -5.41 -0.8 0 0 Z " fill="#FAFDFF" transform="translate(1048,58)"/>
<path d="M0 0 C0.33 0 0.66 0 1 0 C1.66 5.94 2.32 11.88 3 18 C0.36 18 -2.28 18 -5 18 C-6.55 14.9 -5.21 12.8 -4.19 9.56 C-3.83 8.41 -3.47 7.26 -3.11 6.07 C-2 3 -2 3 0 0 Z " fill="#FAFDFF" transform="translate(164,72)"/>
<path d="M0 0 C3.28 5.69 3.11 11.62 3 18 C0.69 18 -1.62 18 -4 18 C-5.33 14 -4.32 11.89 -3.12 7.88 C-2.76 6.61 -2.39 5.35 -2.01 4.05 C-1 1 -1 1 0 0 Z " fill="#F9FCFE" transform="translate(1186,72)"/>
<path d="M0 0 C2.44 -0.08 4.87 -0.14 7.31 -0.19 C8.35 -0.23 8.35 -0.23 9.4 -0.26 C14.56 -0.34 14.56 -0.34 16.98 1.51 C17.32 2 17.65 2.49 18 3 C11.29 3.88 4.77 4.11 -2 4 C-1.34 2.68 -0.68 1.36 0 0 Z " fill="#303132" transform="translate(471,40)"/>
<path d="M0 0 C0.99 0.33 1.98 0.66 3 1 C3 1.66 3 2.32 3 3 C3.66 3.33 4.32 3.66 5 4 C5.41 6.5 5.41 6.5 5.62 9.56 C5.7 10.57 5.77 11.59 5.85 12.63 C5.9 13.41 5.95 14.19 6 15 C5.67 14.34 5.34 13.68 5 13 C4.34 13 3.68 13 3 13 C0.81 11 0.81 11 -1 8 C-1.05 5.17 -0.57 2.81 0 0 Z " fill="#FAFDFF" transform="translate(181,105)"/>
<path d="M0 0 C3 1 3 1 5 4 C5.67 6.12 5.67 6.12 6.19 8.44 C6.37 9.2 6.55 9.96 6.73 10.75 C7.02 13.13 6.73 14.73 6 17 C5.02 15.24 4.05 13.48 3.07 11.73 C1.99 9.84 1.99 9.84 0 8 C-0.27 5.31 -0.09 2.71 0 0 Z " fill="#F4F7F9" transform="translate(1203,105)"/>
<path d="M0 0 C1.68 0.29 3.34 0.62 5 1 C3 5 1 9 -1 13 C-1.03 11.02 -1.05 9.04 -1.06 7.06 C-1.07 5.96 -1.09 4.86 -1.1 3.72 C-1 1 -1 1 0 0 Z " fill="#FAFDFF" transform="translate(787,41)"/>
<path d="M0 0 C1.32 0 2.64 0 4 0 C3.38 5.54 3.38 5.54 1.44 7.88 C0.96 8.25 0.49 8.62 0 9 C-1.12 2.25 -1.12 2.25 0 0 Z " fill="#FAFDFF" transform="translate(65,42)"/>
<path d="M0 0 C1.65 0.33 3.3 0.66 5 1 C3.68 4.63 2.36 8.26 1 12 C0.67 12 0.34 12 0 12 C-0.93 7.67 -0.93 4.33 0 0 Z " fill="#F7FAFC" transform="translate(338,42)"/>
</svg>
